<svg xmlns="http://www.w3.org/2000/svg" width="16" height="16" viewBox="0 0 16 16" fill="none">
    <g clip-path="url(#clip0_426_303)">
        <path d="M10.625 3.21889C10.4779 3.10112 10.3005 3.0273 10.1133 3.00595C9.92609 2.9846 9.73665 3.01658 9.56682 3.09821C9.39698 3.17983 9.25367 3.30778 9.15338 3.46731C9.0531 3.62684 8.99993 3.81146 9 3.99989V6.99989H1C0.734784 6.99989 0.48043 7.10524 0.292893 7.29278C0.105357 7.48032 0 7.73467 0 7.99989C0 8.2651 0.105357 8.51946 0.292893 8.70699C0.48043 8.89453 0.734784 8.99989 1 8.99989H9V11.9999C8.99993 12.1883 9.0531 12.3729 9.15338 12.5325C9.25367 12.692 9.39698 12.8199 9.56682 12.9016C9.73665 12.9832 9.92609 13.0152 10.1133 12.9938C10.3005 12.9725 10.4779 12.8987 10.625 12.7809L15.625 8.78089C15.7422 8.6872 15.8367 8.56837 15.9017 8.43317C15.9667 8.29798 16.0005 8.14989 16.0005 7.99989C16.0005 7.84988 15.9667 7.7018 15.9017 7.5666C15.8367 7.43141 15.7422 7.31257 15.625 7.21889L10.625 3.21889Z"
        />
    </g>
    <defs>
        <clipPath id="clip0_426_303">
            <rect width="16" height="16" fill="white"/>
        </clipPath>
    </defs>
</svg>
