<svg xmlns="http://www.w3.org/2000/svg" width="16" height="16" viewBox="0 0 16 16" fill="none">
    <g clip-path="url(#clip0_457_3521)">
        <path d="M15.7068 0.292881C15.4338 0.0208806 15.0268 -0.0721194 14.6638 0.0588806L0.663812 5.05888C0.286812 5.19288 0.0258123 5.53988 0.00181231 5.93888C-0.0221877 6.33888 0.193812 6.71388 0.552812 6.89388L5.13881 9.18588L10.9998 4.99988L6.81281 10.8619L9.10481 15.4479C9.27581 15.7869 9.62281 15.9999 9.99981 15.9999C10.0208 15.9999 10.0408 15.9989 10.0608 15.9979C10.4608 15.9739 10.8078 15.7139 10.9428 15.3359L15.9428 1.33588C16.0718 0.972881 15.9798 0.565881 15.7068 0.292881Z" />
    </g>
    <defs>
        <clipPath id="clip0_457_3521">
            <rect width="16" height="16" fill="white"/>
        </clipPath>
    </defs>
</svg>
